<svg width="150" height="150" viewBox="0 0 150 150" fill="none" xmlns="http://www.w3.org/2000/svg">
<g id="Group 411">
<circle id="Ellipse 1" opacity="0.1" cx="75" cy="75" r="75" fill="#CB2929"/>
<g id="Group 388">
<g id="Group">
<path id="Vector" d="M78.3519 77.0088H75.2465L67.7305 97.2166H70.791L78.3519 77.0088Z" fill="#A52626"/>
<path id="Vector_2" d="M79.2969 83.1754L89.1979 87.136L79.2969 91.0514V94.1566L92.9785 88.7111V85.5609L79.2969 80.0703V83.1754Z" fill="#A52626"/>
<path id="Vector_3" d="M66.7843 91.0514L56.883 87.136L66.7843 83.1754V80.0703L53.0576 85.5609V88.7111L66.7843 94.1566V91.0514Z" fill="#A52626"/>
<path id="Vector_4" d="M47.3584 52.3821C47.3584 59.7678 47.3584 79.7574 47.3584 97.3592C47.3584 100.469 49.89 103 52.9995 103H97.135C100.245 103 102.776 100.469 102.776 97.3592C102.776 79.7576 102.776 59.7664 102.776 52.3821C102.776 49.2725 100.245 46.7432 97.135 46.7432H52.9995C49.89 46.7432 47.3584 49.2725 47.3584 52.3821ZM100.526 97.3592C100.526 99.2293 99.0051 100.75 97.135 100.75H52.9995C51.1294 100.75 49.6087 99.2293 49.6087 97.3592V58.1726H100.526V97.3592ZM100.526 52.3821V55.9223H49.6087V52.3821C49.6087 50.5142 51.1294 48.9934 52.9995 48.9934H97.135C99.0051 48.9934 100.526 50.5142 100.526 52.3821Z" fill="#A52626"/>
<path id="Vector_5" d="M79.172 53.8616H82.0728C82.6947 53.8616 83.1979 53.3584 83.1979 52.7365C83.1979 52.1146 82.6947 51.6113 82.0728 51.6113H79.172C78.5501 51.6113 78.0469 52.1146 78.0469 52.7365C78.0469 53.3584 78.5501 53.8616 79.172 53.8616Z" fill="#A52626"/>
<path id="Vector_6" d="M85.3507 53.8616H88.2515C88.8734 53.8616 89.3766 53.3584 89.3766 52.7365C89.3766 52.1146 88.8734 51.6113 88.2515 51.6113H85.3507C84.7288 51.6113 84.2256 52.1146 84.2256 52.7365C84.2256 53.3584 84.7288 53.8616 85.3507 53.8616Z" fill="#A52626"/>
<path id="Vector_7" d="M91.5285 53.8616H94.4292C95.0511 53.8616 95.5544 53.3584 95.5544 52.7365C95.5544 52.1146 95.0511 51.6113 94.4292 51.6113H91.5285C90.9066 51.6113 90.4033 52.1146 90.4033 52.7365C90.4033 53.3584 90.9066 53.8616 91.5285 53.8616Z" fill="#A52626"/>
<path id="Vector_8" d="M75.9503 71.008C78.939 71.008 81.3717 73.4406 81.3717 76.4315C81.3717 77.0534 81.8749 77.5566 82.4968 77.5566C83.1187 77.5566 83.622 77.0534 83.622 76.4315C83.622 73.4406 86.0546 71.008 89.0455 71.008C89.6674 71.008 90.1707 70.5047 90.1707 69.8828C90.1707 69.2609 89.6674 68.7577 89.0455 68.7577C86.0546 68.7577 83.622 66.325 83.622 63.3341C83.622 62.7122 83.1187 62.209 82.4968 62.209C81.8749 62.209 81.3717 62.7122 81.3717 63.3341C81.3717 66.325 78.939 68.7577 75.9503 68.7577C75.3284 68.7577 74.8252 69.2609 74.8252 69.8828C74.8252 70.5047 75.3284 71.008 75.9503 71.008ZM82.4968 67.3315C83.1341 68.3709 84.0087 69.2455 85.0482 69.8828C84.0087 70.5201 83.1341 71.3947 82.4968 72.4342C81.8617 71.3947 80.9849 70.5201 79.9455 69.8828C80.9849 69.2455 81.8617 68.3709 82.4968 67.3315Z" fill="#A52626"/>
<path id="Vector_9" d="M88.1789 65.367C88.8821 65.367 89.4534 65.9384 89.4534 66.6416C89.4534 67.2635 89.9567 67.7668 90.5786 67.7668C91.2005 67.7668 91.7037 67.2635 91.7037 66.6416C91.7037 65.9384 92.2773 65.367 92.9805 65.3648C92.9827 65.3648 92.9827 65.3648 92.9849 65.3648C92.9871 65.3648 92.9871 65.3648 92.9893 65.3648C92.9915 65.3648 92.9915 65.3648 92.9915 65.3648C92.9937 65.3648 92.9937 65.3648 92.9937 65.3648H92.9959C92.9975 65.3648 92.9986 65.3648 93.0003 65.3648C93.0025 65.3648 93.0025 65.3648 93.0025 65.3648H93.0047C93.0063 65.3648 93.0074 65.3648 93.0091 65.3648C93.0113 65.3648 93.0113 65.3648 93.0135 65.3648H93.0156C93.62 65.3451 94.1034 64.8484 94.1034 64.2419C94.1034 64.2397 94.1034 64.2397 94.1034 64.2397C94.1034 63.6178 93.6002 63.1146 92.9783 63.1146C92.2751 63.1146 91.7037 62.5432 91.7037 61.84C91.7037 61.2181 91.2005 60.7148 90.5786 60.7148C89.9567 60.7148 89.4534 61.2181 89.4534 61.84C89.4534 62.5212 88.915 63.0816 88.2404 63.1146C88.2206 63.1146 88.2008 63.1146 88.1811 63.1146V63.1168C88.1789 63.1168 88.1789 63.1168 88.1767 63.1168C87.5569 63.1168 87.0537 63.6222 87.0537 64.2419C87.0537 64.8638 87.5569 65.367 88.1789 65.367Z" fill="#A52626"/>
</g>
</g>
</g>
</svg>
